<?xml version="1.0" encoding="UTF-8" standalone="no"?>
<!DOCTYPE svg PUBLIC "-//W3C//DTD SVG 1.1//EN" "http://www.w3.org/Graphics/SVG/1.1/DTD/svg11.dtd">
<svg width="100%" height="100%" viewBox="0 0 34 33" version="1.1" xmlns="http://www.w3.org/2000/svg" xmlns:xlink="http://www.w3.org/1999/xlink" xml:space="preserve" xmlns:serif="http://www.serif.com/" style="fill-rule:evenodd;clip-rule:evenodd;stroke-linejoin:round;stroke-miterlimit:2;">
    <g transform="matrix(1,0,0,1,-24.0687,-13.2848)">
        <g transform="matrix(0.0622176,0,0,0.0622176,-41.7381,-55.3165)">
            <path d="M1376.04,1107.38C1342.76,1101.01 1308.59,1101.01 1275.31,1107.38C1280.99,1137.08 1274.75,1164.02 1256.58,1188.19C1245.99,1192.2 1235.76,1197.13 1226.02,1202.91C1195.79,1202.04 1170.83,1190.13 1151.15,1167.17C1125.43,1189.21 1104.12,1215.93 1088.35,1245.92C1115.12,1259.99 1132.29,1281.67 1139.86,1310.95C1136.39,1321.73 1133.86,1332.8 1132.31,1344.03C1112.78,1367.11 1087.91,1379.19 1057.69,1380.27C1058.89,1414.12 1066.5,1447.44 1080.1,1478.47C1107.79,1466.32 1135.45,1466.41 1163.06,1478.74C1169.33,1488.18 1176.4,1497.06 1184.21,1505.27C1190.09,1534.93 1184.03,1561.91 1166.02,1586.21C1193.24,1606.38 1224.03,1621.21 1256.77,1629.91C1264.54,1600.69 1281.85,1579.12 1308.71,1565.22C1320,1566.21 1331.35,1566.21 1342.64,1565.22C1369.5,1579.12 1386.81,1600.69 1394.58,1629.91C1427.32,1621.21 1458.11,1606.38 1485.33,1586.21C1467.32,1561.91 1461.26,1534.93 1467.14,1505.27C1474.94,1497.06 1482.02,1488.18 1488.29,1478.74C1515.9,1466.41 1543.56,1466.32 1571.25,1478.47C1584.86,1447.44 1592.46,1414.12 1593.66,1380.27C1563.44,1379.19 1538.57,1367.11 1519.04,1344.03C1517.49,1332.8 1514.96,1321.73 1511.49,1310.95C1519.07,1281.67 1536.23,1259.99 1563,1245.92C1547.23,1215.93 1525.92,1189.21 1500.2,1167.17C1480.52,1190.13 1455.56,1202.04 1425.33,1202.91C1415.59,1197.13 1405.36,1192.2 1394.77,1188.19C1376.6,1164.02 1370.36,1137.08 1376.04,1107.38ZM1325.67,1291.92C1369.19,1291.92 1404.51,1327.25 1404.51,1370.76C1404.51,1414.27 1369.19,1449.6 1325.67,1449.6C1282.16,1449.6 1246.84,1414.27 1246.84,1370.76C1246.84,1327.25 1282.16,1291.92 1325.67,1291.92Z" style="fill:rgb(235,235,235);"/>
        </g>
    </g>
</svg>
