<svg viewBox="0 0 34 33" xmlns="http://www.w3.org/2000/svg" fill-rule="evenodd" clip-rule="evenodd" stroke-linejoin="round" stroke-miterlimit="2"><path d="M19.807.297a16.666 16.666 0 00-6.267 0c.353 1.848-.035 3.524-1.165 5.028-.66.25-1.296.556-1.902.916-1.88-.054-3.434-.795-4.658-2.224a16.67 16.67 0 00-3.907 4.9c1.665.875 2.734 2.224 3.205 4.046a12.13 12.13 0 00-.47 2.058C3.428 16.457 1.88 17.209 0 17.276c.075 2.106.548 4.179 1.394 6.11 1.723-.756 3.444-.75 5.162.016.39.588.83 1.14 1.316 1.651.366 1.845-.011 3.524-1.132 5.036a16.678 16.678 0 005.646 2.719c.484-1.818 1.56-3.16 3.232-4.025.702.062 1.409.062 2.111 0 1.671.865 2.748 2.207 3.232 4.025a16.678 16.678 0 005.646-2.72c-1.12-1.511-1.498-3.19-1.132-5.035.485-.51.926-1.063 1.316-1.65 1.718-.768 3.439-.773 5.162-.017a16.682 16.682 0 001.394-6.11c-1.88-.067-3.428-.819-4.643-2.255a12.13 12.13 0 00-.47-2.058c.472-1.822 1.54-3.17 3.205-4.046a16.67 16.67 0 00-3.907-4.9c-1.224 1.429-2.777 2.17-4.658 2.224a12.176 12.176 0 00-1.902-.916c-1.13-1.504-1.518-3.18-1.165-5.028zM16.673 11.78a4.907 4.907 0 014.905 4.905 4.907 4.907 0 01-4.905 4.905 4.907 4.907 0 01-4.904-4.905 4.907 4.907 0 014.904-4.905z" fill="#ebebeb"/></svg>