<svg viewBox="0 0 1094 1615" xmlns="http://www.w3.org/2000/svg" fill-rule="evenodd" clip-rule="evenodd" stroke-linejoin="round" stroke-miterlimit="2"><path d="M123.432 730.15c-44.344 73.97-67.713 157.88-67.763 243.31-.159 268.61 225.893 486.81 504.483 486.97 278.59.17 504.89-217.77 505.05-486.38.05-85.43-23.22-169.36-67.48-243.38l-874.29-.52z" fill="#008ee6"/><ellipse cx="969.243" cy="1552.3" rx="110.362" ry="112.171" fill="#005186" transform="matrix(1.27869 0 0 1.24194 -944.878 -984.228)"/><ellipse cx="969.243" cy="1552.3" rx="110.362" ry="112.171" fill="#005186" transform="matrix(1.27869 0 0 1.24194 -423.826 -986.676)"/><path d="M558.732 889.14l110.36 350.99h-220.72l110.36-350.99z" fill="#005186"/><ellipse cx="591.118" cy="1251.97" rx="90.461" ry="94.079" fill="#fff" transform="translate(-299.084 -261.515)"/><ellipse cx="591.118" cy="1251.97" rx="90.461" ry="94.079" fill="#fff" transform="translate(220.798 -265.559)"/><ellipse cx="968.998" cy="1696.25" rx="52.679" ry="49.486" transform="translate(-675.72 -749.149)"/><ellipse cx="968.998" cy="1696.25" rx="52.679" ry="49.486" transform="translate(-154.251 -754.47)"/><path d="M480.302 1331.31c-.05 28.96 35.58 52.52 79.51 52.59 43.94.08 79.65-23.38 79.7-52.33-18.59 8.65-47.88 15.66-79.64 15.61-31.75-.05-61.02-7.15-79.57-15.87zm270.97-1008.992l201.45-128.165 17.62 27.7-201.45 128.164-17.62-27.699z" fill="#005186"/><ellipse cx="1401.64" cy="1058.39" rx="47.039" ry="37.993" fill="#005186" transform="matrix(.5682 0 0 .72729 98.813 -444.668)"/><ellipse cx="1401.64" cy="1058.39" rx="47.039" ry="37.993" fill="#005186" transform="matrix(.5682 0 0 .72729 28.288 -555.155)"/><path d="M172.138 641.72L300.302 518.1l31.46 32.62-128.156 123.63-31.468-32.63zM356.822 269.774l-50.28-34.152 28.08-22.432 22.2 56.584zm20.35 35.546l50.18 34.19-27.71 22.219-22.47-56.41v.001z" fill="#005186"/><path d="M233.394 270.578l89.218-72.153 12.17 15.05-89.217 72.151-12.171-15.048zm95.748 148.032l98.05-79.295 12.17 15.049-98.05 79.296-12.17-15.05z" fill="#005186"/><path d="M245.715 285.628l5.185-10.158 87.472 44.648-5.19 10.159-87.467-44.649z" fill="#005186"/><path d="M340.802 418.11l-11.4.33-2.86-98.157 11.4-.332 2.86 98.159zM749.482 562.97l14.21-23.94 148.45 88.12-14.21 23.94-148.45-88.12z" fill="#005186"/><path d="M853.132 514.66l25.5 11.2-69.38 158.08-25.49-11.19 69.37-158.09zM665.402 443.4l-.1 31.71-170.55-.53.1-31.71 170.55.53z" fill="#005186"/><path d="M557.102 379.41l38.17.2-.94 176.19-38.17-.2.94-176.19zM485.302 101.668L626.922 0l25.42 35.407-141.62 101.668-25.42-35.407zm36.41 49.96L663.342 49.96l25.41 35.407-141.62 101.668-25.42-35.407z" fill="#005186"/><path d="M42-18.875C49.5-2 50.5-2.25 52.5-2c4 .5 8.5-13.75 11.25-19.5 3-6.375 7-17.375 10.875-17.375C79-38.875 76.5-17.375 76-15.25c-.875 4-6.5 4.75-6.5 9.125 0 8 17.125 7.5 22.25 7.5 5.5 0 22.625.375 22.625-8 0-5.625-7.5-3.625-7.875-12.75-.5-11.625-1.25-25.375-1.25-27.25 0-5.625.875-20.375 1.875-23.875 1.25-4.25 6.875-5.25 6.875-10.25 0-7.875-12.5-8.25-18-8.25-16.5 0-16.625 3.75-23 15.5-4.5 8.25-9.625 23.375-13.5 22.5-5.5-1.25-13.25-21.75-17.625-29.125C38.125-86.5 38.375-89 23.75-89c-10 0-21.625 1.75-21.625 8.875 0 5.125 7.125 6 8.375 8.625 1.375 2.875 1.875 6.75 1.875 14.25 0 18.125-1.125 29.75-2.125 40.25-1 10.25-8.5 4.375-8.5 11.5 0 6.5 11.375 6.875 15.75 6.875 4.875 0 18.25-.25 18.25-7.375 0-6.75-8-.5-8-13.875C27.75-24 26.5-40.5 30.375-40.5c2.25 0 3.625 3.75 4.375 5.375L42-18.875z" fill-rule="nonzero" stroke="#000" stroke-width="1.11" transform="matrix(.54515 .57177 -.72375 .69006 -2.67 1339.88)"/><path d="M34.875-26.875c3.5 0 3.375 3.125 3.375 5.875 0 3.75-.375 8.875-5.125 8.875-3.625 0-5.375-3.5-5.375-6.75 0-4 2.875-8 7.125-8zm30.375-15.5c0-18.75-19.5-21.5-26.625-21.5-11.875 0-33 6.875-33 17.5 0 4 3 6.875 7 6.875C23.75-39.5 24.5-53 32-53c5.75 0 5.875 8.625 5.875 12.75 0 4.5-1.75 4.25-5.625 4.25-22 0-30.5 11-30.5 19.875C1.75-3.75 12.125 1.75 22.5 1.75c5.75 0 9.5-1.625 12.25-3.25 2.75-1.5 4.375-3.125 5.875-3.125 3.125 0 3.375 6.375 13.25 6.375C63 1.75 72.75-6 72.75-13.125c0-6.75-7.5 5.25-7.5-16.75v-12.5z" fill-rule="nonzero" stroke="#000" stroke-width="1.11" transform="matrix(.61237 .4991 -.63178 .77515 82.29 1426.69)"/><path d="M40.5-45.625c0-4.5.25-4.625 4.625-4.625h8.625c4.875 0 5.75-.5 5.75-7.625 0-5.625 0-6-5.375-6h-8.75c-3.25 0-4.125 0-4.5-1-.625-1.5-.375-5.375-.375-9.25 0-5.75-.25-5.25-5.25-5.25-3.75 0-3.625-.375-6.5 1.375L.25-59.875c-1.5 1-1.125 2.375-1.125 4.125 0 2.875-.25 4.125.625 5 .625.625 2.25.5 5.5.5 2.875 0 4.25-.25 4.875.125s.625 1.25.625 3.5v25.75C10.75-1 26.75 1.75 33.125 1.75 45.75 1.75 60-5.5 60-13.75c0-2.25-1.75-5.75-4.25-5.75-2.25 0-4.5 2.875-8.375 2.875-3.375 0-6.875-2-6.875-10.375v-18.625z" fill-rule="nonzero" stroke="#000" stroke-width="1.11" transform="matrix(.6618 .4314 -.54608 .83773 151.755 1481.85)"/><path d="M81.25-38.75c-.125-3.5 1.5-25.125-21.5-25.125-14 0-15.625 11.125-19.375 11.125-3.25 0-3.125-4-3-6.375l.75-23.75c0-3.625-.25-4.75-4-4.75C34-87.625 1.5-85 1.5-75c0 5.875 7.5 2.75 7.75 11.625.125 5.625.5 11.375.5 17 0 6.875 0 23.375-1.5 29.25-2.125 8.125-7 5.875-7 10.875 0 3.875 4.125 7.625 22 7.625 4.75 0 19-.125 19-7.375 0-4.5-5-2.375-5-12.75v-14.5c0-5.625-.25-12.125 7.375-12.125 8.875 0 9 11.75 9 18 0 4.125-.125 8.5-.875 12.5-1 6.375-4.5 6.25-4.5 9.875 0 6.375 15.125 6.375 19 6.375 4.625 0 20.625.125 20.625-7.125 0-4.875-6.125-2.25-6.125-12.875l-.5-20.125z" fill-rule="nonzero" stroke="#000" stroke-width="1.11" transform="matrix(.71123 .34388 -.4353 .90029 216.955 1524.14)"/><path d="M12.75-33.75c0 4.125-.375 13-1.625 16.5C8.5-10.625 1.75-13.875 1.75-6.875 1.75-1.5 5 1.375 25 1.375c30.375 0 29.25-5.5 29.25-8.375 0-9.5-12.625.75-12.125-17.75C42.25-37.625 41.5-38.625 47-38.625c13.375 0 5.125 14.125 13.125 14.125 8.5 0 9.125-15.125 9.125-21 0-4.875-.5-18.5-7.625-18.5-8.75 0-2.625 11.5-12.25 11.5-7.25 0-7.375-2.125-7.375-4.375 0-18.125 3.25-17.5 10.875-17.5 24 0 19.5 12.875 28.125 12.875 4.75 0 6.75-4.375 6.75-8.625 0-8.5-5.125-18.375-10-18.375-1.75 0-26.875 1.25-29.375 1.25C38-87.25 15.5-88.5 12.25-88.5c-4 0-9.5 2-9.5 6.75 0 6.875 8.125 1.875 9.625 12.625.625 4.875.5 12.875.375 18v17.375z" fill-rule="nonzero" stroke="#000" stroke-width="1.11" transform="matrix(.77622 .1469 -.18596 .98256 384.285 1591.93)"/><path d="M39.125-46.625c0-17.875 1.625-31.625 1.625-34.5 0-3.75-1-6.5-5.25-6.5-1.75 0-34.25 2.625-34.25 13.5C1.25-67 8.625-70.25 10.5-61c1.125 5.625.875 15 .875 19.875 0 6.125 0 21.75-1.625 26.875-1.5 4.625-6.875 3-6.875 7.375 0 8.875 17.5 8.25 23.125 8.25 5.375 0 20.625.625 20.625-7.75 0-5.25-5.625-3.125-7-7.625-.625-2-.5-6.125-.5-8.375v-24.25z" fill-rule="nonzero" stroke="#000" stroke-width="1.11" transform="matrix(.788 .05618 -.07111 .99747 481.405 1608.55)"/><path d="M34.875-26.875c3.5 0 3.375 3.125 3.375 5.875 0 3.75-.375 8.875-5.125 8.875-3.625 0-5.375-3.5-5.375-6.75 0-4 2.875-8 7.125-8zm30.375-15.5c0-18.75-19.5-21.5-26.625-21.5-11.875 0-33 6.875-33 17.5 0 4 3 6.875 7 6.875C23.75-39.5 24.5-53 32-53c5.75 0 5.875 8.625 5.875 12.75 0 4.5-1.75 4.25-5.625 4.25-22 0-30.5 11-30.5 19.875C1.75-3.75 12.125 1.75 22.5 1.75c5.75 0 9.5-1.625 12.25-3.25 2.75-1.5 4.375-3.125 5.875-3.125 3.125 0 3.375 6.375 13.25 6.375C63 1.75 72.75-6 72.75-13.125c0-6.75-7.5 5.25-7.5-16.75v-12.5z" fill-rule="nonzero" stroke="#000" stroke-width="1.11" transform="matrix(.78907 -.03821 .04837 .99883 548.755 1612.97)"/><path d="M28.625-63.875C15.75-63.875 5.5-56 5.5-43.5 5.5-22.875 30-22 30-14.625c0 2.75-2.375 4-4.875 4-7 0-12-12.375-17.5-12.375-3.625 0-4.75 2.625-4.75 5.875C2.875-12.375 6-5.25 9.125-1.75c1.75 2 3 2.375 5.5 2.375C15.5.625 16.25.5 17 .375c.875-.125 1.625-.25 2.5-.25.75 0 3.5.375 6.625.75 3.125.5 6.75.875 9.25.875 13 0 24.375-8.125 24.375-19.875C59.75-37.5 32.25-39 32.25-47c0-2.375 2.25-4.25 4.5-4.25 5.5 0 9.5 9.875 16.625 9.875 3.25 0 6.125-2.5 6.125-5.875 0-5.125-5.75-16.625-11.5-16.625-1.125 0-2.25.375-3.375.75-1.125.5-2.125.875-3.375.875-.875 0-2.875-.375-5.125-.875-2.375-.375-5-.75-7.5-.75z" fill-rule="nonzero" stroke="#000" stroke-width="1.11" transform="matrix(.77838 -.13503 .17092 .98528 637.345 1607.44)"/><path d="M81.25-38.75c-.125-3.5 1.5-25.125-21.5-25.125-14 0-15.625 11.125-19.375 11.125-3.25 0-3.125-4-3-6.375l.75-23.75c0-3.625-.25-4.75-4-4.75C34-87.625 1.5-85 1.5-75c0 5.875 7.5 2.75 7.75 11.625.125 5.625.5 11.375.5 17 0 6.875 0 23.375-1.5 29.25-2.125 8.125-7 5.875-7 10.875 0 3.875 4.125 7.625 22 7.625 4.75 0 19-.125 19-7.375 0-4.5-5-2.375-5-12.75v-14.5c0-5.625-.25-12.125 7.375-12.125 8.875 0 9 11.75 9 18 0 4.125-.125 8.5-.875 12.5-1 6.375-4.5 6.25-4.5 9.875 0 6.375 15.125 6.375 19 6.375 4.625 0 20.625.125 20.625-7.125 0-4.875-6.125-2.25-6.125-12.875l-.5-20.125z" fill-rule="nonzero" stroke="#000" stroke-width="1.11" transform="matrix(.75267 -.23998 .30377 .95275 715.505 1593.62)"/><path d="M42.375-36.125c-1.375 0-4.5.375-4.5-1.75 0-1.5 2.125-6.375 2.625-7.75s2.625-8.875 5.625-8.875c2.75 0 4.875 4.625 6 6.625 1 1.75 4.625 8.25 4.625 10.125s-3.75 1.625-5 1.625h-9.375zM17.625-28c-1.875 4-4.5 10-7.25 13.375C6.75-10.125 0-11.875 0-6c0 4 1.625 7.375 19.5 7.375 5 0 18.5-.125 18.5-7.625 0-6.5-8-3.25-8-8.125 0-6.125 3.875-6.375 10.375-6.375 20.125 0 23.25.5 23.25 6.125C63.625-10.25 56-12.5 56-6.5c0 7.75 10.75 7.875 28.625 7.875 6.25 0 24 .375 24-8.75 0-7.125-6.75-1.375-10.875-10.875-4.5-10.25-23.375-48.5-25.5-52.125-4.875-8.25-11.75-19.375-22.625-19.375-11.125 0-15.125 6.5-15.125 15.125 0 9.875-5.125 20.875-9 29.5L17.625-28z" fill-rule="nonzero" stroke="#000" stroke-width="1.11" transform="matrix(.66233 -.4306 .54507 .8384 883.745 1528.08)"/><path d="M54.375-29.5c0 6-1 14.375-8.75 14.375-4.375 0-6.375-1.5-6.375-5.625 0-22.75 1.5-24.625 6-24.625 7.875 0 9.125 9.875 9.125 15.875zM11-17.875C11-4 10.5-.375 9.25 2.25 7 7.125 1.875 5 1.875 10.625c0 6.375 13.125 12.5 29.875 12.5 4.875 0 16.25-.875 16.25-7.875 0-6.125-7.75-3.125-7.75-12.625 0-1.375.25-4 2-4 1.125 0 7 3.125 12.875 3.125 18.25 0 30.125-17.875 30.125-34.625 0-14.625-8.75-31-25.125-31-10.25 0-17.25 6.75-19 6.75-1.25 0-1.375-1.75-1.375-2.625 0-2.75-.5-3.75-3.5-3.75-9.25 0-35 6.5-35 15 0 7.125 6.75 5.5 8.375 7.125.625.625 1.375 3.5 1.375 16.625v6.875z" fill-rule="nonzero" stroke="#000" stroke-width="1.11" transform="matrix(.59782 -.51644 .65373 .75673 979.885 1464.04)"/><path d="M54.375-29.5c0 6-1 14.375-8.75 14.375-4.375 0-6.375-1.5-6.375-5.625 0-22.75 1.5-24.625 6-24.625 7.875 0 9.125 9.875 9.125 15.875zM11-17.875C11-4 10.5-.375 9.25 2.25 7 7.125 1.875 5 1.875 10.625c0 6.375 13.125 12.5 29.875 12.5 4.875 0 16.25-.875 16.25-7.875 0-6.125-7.75-3.125-7.75-12.625 0-1.375.25-4 2-4 1.125 0 7 3.125 12.875 3.125 18.25 0 30.125-17.875 30.125-34.625 0-14.625-8.75-31-25.125-31-10.25 0-17.25 6.75-19 6.75-1.25 0-1.375-1.75-1.375-2.625 0-2.75-.5-3.75-3.5-3.75-9.25 0-35 6.5-35 15 0 7.125 6.75 5.5 8.375 7.125.625.625 1.375 3.5 1.375 16.625v6.875z" fill-rule="nonzero" stroke="#000" stroke-width="1.11" transform="matrix(.53072 -.58518 .74074 .6718 1054.18 1398.79)"/><path d="M800.102 1402.11c-59.1-20.49-101.58-76.69-101.58-142.73 0-83.36 67.67-151.03 151.03-151.03 69.92 0 128.81 47.61 145.98 112.16-46.71 76.34-114.41 139.34-195.43 181.6zm-683.977-197.37c22.223-55.74 76.719-95.18 140.353-95.18 83.354 0 151.034 67.67 151.034 151.03 0 62.28-37.78 115.81-91.67 138.9-84.308-45.16-153.824-112.92-199.717-194.75z" fill="#ff3554"/></svg>