<svg viewBox="0 0 1040 1110" xmlns="http://www.w3.org/2000/svg" xml:space="preserve" style="fill-rule:evenodd;clip-rule:evenodd;stroke-linejoin:round;stroke-miterlimit:2"><path d="M67.76 220.735C23.416 294.7.047 378.605-.003 464.035-.162 732.646 225.89 950.85 504.48 951.014c278.586.165 504.89-217.772 505.05-486.382.05-85.43-23.222-169.364-67.481-243.38l-874.289-.516v-.001Z" style="fill:#008ee6" transform="matrix(1.01022 0 0 1.0096 9.685 62.813)"/><ellipse cx="969.243" cy="1552.3" rx="110.362" ry="112.171" style="fill:#005186" transform="matrix(1.29126 0 0 1.25184 -1000.306 -1442.387)"/><ellipse cx="969.243" cy="1552.3" rx="110.362" ry="112.171" style="fill:#005186" transform="matrix(1.29126 0 0 1.25184 -474.128 -1444.847)"/><path d="m503.065 379.725 110.36 350.99H392.704l110.362-350.99h-.001Z" style="fill:#005186" transform="matrix(1.00983 0 0 1.00797 10.08 63.17)"/><ellipse cx="591.118" cy="1251.97" rx="90.461" ry="94.079" style="fill:#fff" transform="matrix(1.00983 0 0 1.00797 -348.16 -713.907)"/><ellipse cx="591.118" cy="1251.97" rx="90.461" ry="94.079" style="fill:#fff" transform="matrix(1.00983 0 0 1.00797 176.833 -717.983)"/><ellipse cx="968.998" cy="1696.25" rx="52.679" ry="49.486" transform="matrix(1.00983 0 0 1.00797 -728.498 -1207.43)"/><ellipse cx="968.998" cy="1696.25" rx="52.679" ry="49.486" transform="matrix(1.00983 0 0 1.00797 -201.903 -1210.796)"/><path d="M424.629 821.89c-.047 28.958 35.586 52.524 79.516 52.595 43.94.07 79.647-23.381 79.694-52.34-18.584 8.659-47.876 15.665-79.636 15.614-31.75-.051-61.018-7.15-79.574-15.869Z" style="fill:#005186" transform="matrix(1.00983 0 0 1.00797 10.08 63.17)"/><path d="M744.434 892.69c-59.1-20.49-101.58-76.69-101.58-142.73 0-83.36 67.67-151.03 151.03-151.03 69.92 0 128.81 47.61 145.98 112.16-46.71 76.34-114.41 139.34-195.43 181.6ZM60.457 695.32c22.223-55.74 76.719-95.18 140.353-95.18 83.354 0 151.034 67.67 151.034 151.03 0 62.28-37.78 115.81-91.67 138.9-84.308-45.16-153.824-112.92-199.717-194.75Z" style="fill:#ff3554" transform="matrix(1.00983 0 0 1.00797 10.08 63.17)"/><g><path d="m143.414 178.829 96.136-92.737 23.605 24.47L167.02 203.3l-23.606-24.471Z" style="fill:#006db9" transform="translate(-114.202 1.883) scale(1.30222)"/><path d="m359.92 70.831 52.087.162-.073 23.775-52.014-.162v52.019h-23.775V94.532l-52.097-.162.074-23.775 52.023.162V18.739h23.775v52.092Z" style="fill:#006db9" transform="translate(-113.199 6.913) scale(1.30222)"/><path d="m463.952 144.166 36.056-37.591 17.158 16.458-36.004 37.537 37.653 35.892-16.404 17.209-37.707-35.943-36.063 37.599-17.158-16.458 36.012-37.545-37.653-35.891 16.404-17.21 37.706 35.943Z" style="fill:#006db9" transform="translate(-110.594 4.028) scale(1.30222)"/><path d="m587.27 168.548 84.92-60.961 12.806 17.84-84.92 60.96-12.806-17.839Zm-25.295-30.118 84.92-60.96L659.7 95.308l-84.92 60.96-12.805-17.838Z" style="fill:#006db9" transform="translate(-112.563 6.492) scale(1.30222)"/><path d="m760.811 58.533.031-.025.048.122.05.062-.02.016 14.344 36.569-32.372-21.989-33.581 27.159 53.96 27.544-.261.511 1.677 57.497 38.374-31.035-14.571-36.589 32.463 22.119.036-.029.097.12.01.007-.003.002 7.805 9.65-63.715 51.527-7.908-9.778.168-.136-1.732-59.404-52.648-26.873.07-.137-.167.135-7.908-9.779 57.974-46.886 7.779 9.62Z" style="fill:#006db9" transform="translate(-111.266 4.842) scale(1.30222)"/><ellipse cx="1401.64" cy="1058.39" rx="47.039" ry="37.993" style="fill:#006db9" transform="matrix(.37001 0 0 .47362 48.727 -478.277)"/><ellipse cx="1401.64" cy="1058.39" rx="47.039" ry="37.993" style="fill:#006db9" transform="matrix(.37001 0 0 .47362 94.652 -406.329)"/><path d="M486.443 67.684 587.18 3.593l8.813 13.851-100.737 64.092-8.813-13.852Z" style="fill:#006db9" transform="translate(-113.918 4.997) scale(1.30222)"/><g><path d="M226.691 421.385c3.457-15.546-7.466-28.05-21.863-34.707-1.87-8.022-7.385-8.152-12.135-3.714-12.479 11.844-31.304 26.066-41.226 37.753-2.259 2.721-7.101 6.163-5.506 9.711 3.893 8.617 13.159 3.057 15.063-1.097 2.295-4.914 7.21-11.255 11.386-14.093 3.058 5.46 7.001 8.77 9.619 11.66-5.598 8.715-9.015 16.263-11.304 25.354-1.043 3.913-2.586 9.359.908 11.726 5.483 3.669 11.388.208 11.113-4.266-.282-4.332 4.255-21.666 9.894-26.91 10.628 4.135 32.072-2.877 34.051-11.417Zm-14.59-4.189c-1.964 3.939-10.695 7.26-15.149 4.279-3.152-2.138-8.892-4.899-13.378-12.979 1.708-7.349 10.698-13.065 13.583-12.71 9.144 2.646 18.548 14.367 14.944 21.41ZM232.91 435.133c8.407 2.504 12.6-8.013 9.157-12.44-2.192-2.817-4.731-2.632-6.85-1.555-1.837 1.056-3.285 2.58-4.668 4.029-1.905 2.054-3.219 8.318 2.361 9.966Zm-32.222 43.126c4.079-12.068 16.463-23.042 26.298-31.065 4.08-3.347-3.069-8.992-5.762-8.015-3.998 1.569-9.147 6.767-14.593 12.767-5.369 6.065-11.1 13.007-16.522 18.367-2.122 1.999-2.456 10.035 2.77 10.716 2.721.368 6.767.426 7.809-2.77ZM273.918 474.309c2.441-5.483-1.021-9.447-4.517-11.247-6.09-13.546-20.922-14.05-31.807-11.47-11.441 2.683-23.393 17.036-22.288 30.062 1.085 12.526 15.529 20.291 25.226 21.021-2.718 3.593-6.641 8.054-9.584 10.034-4.452 2.762-10.808 2.998-15.453-3.481-2.849-4.148.652-8.173-.982-11.97-1.074-2.319-4.09-4.639-7.393-2.665-4.226 2.432-6.744 7.498-6.367 11.886.745 7.556 7.783 15.32 14.784 18.2 7.939 3.283 18.267.806 23.783-4.38 12.97-11.952 28.708-32.682 34.598-45.99Zm-12.681.251c-3.446 5.883-7.417 11.647-12.104 17.04-7.927 1.461-20.736-4.449-21.105-11.139-.267-6.135 3.68-13.98 9.791-16.328 5.327-1.915 10.144-3.09 14.936-.881 5.838 2.807 9.562 7.801 8.482 11.308ZM304.45 544.385c8.328-16.081 21.928-34.857 8.572-52.853-5.415-7.233-16.722-9.077-23.141-7.927 3.845-7.14 8.71-14.791 10.845-22.525 3.603-12.905-7.486-12.651-9.426-6.486-5.078 15.304-19.602 44.384-33.246 65.576-1.393 1.995-1.012 5.61-.316 6.939 1.955 4.033 8.444 1.808 9.915-.814 5.119-8.416 10.401-17.641 14.273-25.766 5.053-4.792 14.736-6.049 18.879-2.191 6.099 5.565 6.665 11.817 4.685 18.295-2.061 6.883-6.324 13.27-9.83 19.465-1.686 3.073-5.694 6.369-4.861 10.2 1.472 6.906 11.448 2.244 13.651-1.913ZM360.944 548.916c-2.199-4.514-6.364-2.095-9.583-.312-2.777 1.402-5.396 2.962-6.391-1.051-2.311-8.972 5.879-25.858 9.387-34.599l8.611 2.307c3.418.81 8.38.127 8.524-3.51.323-6.737-7.846-9.426-13.033-9.659 1.313-3.99 3.925-7.447 5.966-11.091 2.105-3.834 3.576-7.666.34-10.627-4.602-4.251-8.192-.38-10.61 4.088-2.387 4.373-4.262 10.389-6.113 14.096l-11.433-4.289c-3.198-1.158-8.217 1.296-7.822 5.215.465 5.944 9.674 7.711 14.611 8.705-1.561 5.381-4.033 12.253-6.252 19.313-2.28 7.567-4.368 15.512-4.626 22.691-.586 12.336 9.124 12.584 16.076 11.292 5.498-1.032 15.247-6.983 12.348-12.569ZM520.601 576.394c.466-6.183-3.632-7.695-4.126-14.451-1.149-14.026.26-30.065 3.197-45.087.814-4.151 1.386-6.414-2.23-8.993-3.624-2.48-9.549.283-12.574 3.164-7.152 7.083-14.554 21.467-21.223 28.787-8.328-9.252-13.829-20.096-17.393-28.688-2.71-6.623-13.894-7.265-16.12.991-2.913 10.711-.158 22.051-1.483 32.982-1.9 15.902-3.93 17.554-6.828 28.066-1.266 4.819-.006 10.73 2.848 11.446 5.693 1.633 9.76-7.086 11.405-14.283 2.552-11.24 1.501-26.562 4.703-38.455 6.157 8.787 10.636 18.551 18.445 24.054 7.156 4.851 11.735-.019 13.45-6.809 1.143-4.527 6.557-15.15 12.426-18.518-.464 16.812.713 29.135 1.287 42.817.09 4.119.891 10.798 4.106 12.043 7.206 2.849 9.674-3.282 10.11-9.066ZM539.643 527.789c8.025-3.542 4.403-14.269-1.089-15.408-3.495-.726-5.308 1.061-6.224 3.255-.714 1.994-.829 4.094-.944 6.093-.12 2.799 2.939 8.421 8.257 6.06Zm3.411 53.726c-4.715-11.834-2.396-28.218-.106-40.702.938-5.193-8.165-4.859-9.583-2.369-2.027 3.785-2.58 11.081-2.839 19.18-.158 8.099-.024 17.1-.679 24.695-.321 2.898 4.634 9.234 9.055 6.366 2.31-1.483 5.429-4.061 4.152-7.17ZM610.994 577.275c.059-13.813-2.17-34.942-6.146-41.891-6.765-11.744-22.79-14.619-35.617-2.307-8.351-8.78-15.226-2.906-19.393.56-1.452 1.258-1.983 5.582-.518 7.226 4.297 4.935 6.917-2.273 10.112.104 1.854 1.328 2.271 4.314 2.273 6.916.111 10.504-1.596 25.682.495 40.712.389 2.286 4.737 3.417 8.211 2.68 3.074-.721 2.843-6.616 1.999-10.286-2.298-10.118-1.215-20.768-.012-30.923.692-5.331 9.072-13.666 14.603-12.982 7.445 1.009 10.706 7.587 11.949 16.345 1.248 8.857.506 17.994.155 26.914-.294 7.818 2.347 8.815 5.721 8.082 5.456-1.214 6.124-7.145 6.168-11.15ZM663.03 503.41c.205-6.771-5.231-10.155-8.314-7.272-6.9 6.356-3.511 21.362-3.13 29.675-4.687-2.164-8.193-2.856-14.36-.514-8.293 3.097-21.952 17.001-18.568 32.812 1.735 7.851 3.826 14.45 11.987 20.432 5.729 4.155 11.173 4.214 15.758 2.966 3.417-.908 6.232-2.651 9.379-4.132 1.053 15.685 14.015 6.093 13.011.17-4.204-25.281-6.127-48.314-5.763-74.137Zm-11.219 39.596c1.615 3.433 4.079 15.729.759 20.855-1.78 2.829-10.755 7.82-17.337 3.263-5.816-4.044-7.121-13.355-4.45-19.714 4.408-10.391 16.523-11.826 21.028-4.404ZM825.872 521.466c-2.239-5.781-6.589-5.383-9.942-11.27-7.072-12.167-12.701-27.252-16.512-42.076-1.051-4.097-1.509-6.386-5.883-7.158-4.338-.679-8.497 4.363-9.989 8.265-3.409 9.471-3.902 25.641-6.773 35.118-11.499-4.769-21.13-12.192-28.044-18.414-5.296-4.812-15.667-.581-14.125 7.83 1.978 10.923 9.345 19.973 12.852 30.411 5.126 15.173 4.004 17.538 5.911 28.274.93 4.894 4.61 9.689 7.495 9.107 5.842-.975 5.762-10.596 4.151-17.8-2.532-11.245-10.074-24.624-12.3-36.738 9.339 5.284 17.583 12.171 27 13.778 8.546 1.301 10.585-5.065 9.212-11.933-.916-4.578-.6-16.497 3.25-22.063 6.814 15.377 13.179 25.995 19.583 38.099 1.854 3.679 5.45 9.363 8.888 9.104 7.731-.528 7.321-7.125 5.226-12.534ZM874.988 506.103c-.201-3.124-3.886-4.68-5.396-7.272-7.957-13.651-13.22-32.807-25.857-39.793-10.968-6.108-22.337 3.181-24.591 6.463-3.702 5.167-7 9.636-7.254 16.15-.102 2.606 1.006 5.896 3.51 7.214 7.514 3.954 9.021-3.985 8.424-6.994-1.128-5.708 3.171-10.645 9.758-12.053 4.333-.906 9.385 2.4 11.774 6.1-3.657 1.669-7.811 3.28-10.914 5.899-7.784 6.505-9.355 11.356-10.243 20.555-.895 8.392 7.48 18.789 15.361 20.793 8.975 2.292 17.587-5.969 22.571-13.503 4.123 4.888 13.222 2.826 12.857-3.559Zm-24.985-20.624c4.08 4.219 5.403 8.078 6.38 13.527-3.14 5.535-11.277 15.602-17.265 10.295-9.599-8.526-.064-21.954 10.885-23.822ZM907.718 459.757c-4.978-.652-5.254 4.157-5.539 7.826-.36 3.09-.501 6.135-4.398 4.755-8.761-3.014-18.342-19.151-23.705-26.895l6.67-5.915c2.558-2.407 4.722-6.924 1.766-9.048-5.445-3.981-12.189 1.356-15.241 5.556-2.607-3.293-4.053-7.377-5.97-11.089-2.041-3.868-4.428-7.208-8.681-6.137-6.084 1.498-4.83 6.627-2.434 11.107 2.335 4.401 6.323 9.279 8.396 12.867l-9.877 7.178c-2.728 2.031-3.445 7.572.044 9.402 5.216 2.886 11.764-3.826 15.313-7.399 3.632 4.267 8.005 10.116 12.675 15.857 5.059 6.071 10.539 12.191 16.389 16.361 9.972 7.284 15.528-.683 18.28-7.196 2.167-5.158 2.572-16.572-3.688-17.23ZM958.801 424.98c-13.06-12.546-27.209-30.912-48.255-23.205-8.471 3.142-13.445 13.462-14.162 19.944-5.756-5.713-11.714-12.547-18.526-16.787-11.354-7.114-14.254 3.591-8.892 7.2 13.236 9.209 37.005 31.381 53.459 50.474 1.517 1.902 5.093 2.561 6.565 2.27 4.422-.731 4.128-7.584 2.03-9.738-6.62-7.295-13.968-14.976-20.662-20.993-3.162-6.204-1.622-15.846 3.252-18.725 7.066-4.271 13.221-3.041 18.873.694 6.015 3.928 10.932 9.827 15.878 14.945 2.469 2.489 4.494 7.267 8.404 7.554 7.039.546 5.397-10.342 2.036-13.633Z" style="fill-rule:nonzero" transform="translate(-32.229 515.275)"/></g></g></svg>