<svg viewBox="0 0 1116 1601" xmlns="http://www.w3.org/2000/svg" xml:space="preserve" style="fill-rule:evenodd;clip-rule:evenodd;stroke-linejoin:round;stroke-miterlimit:2"><path d="M1703.1 1848.11c44.3-73.99 67.62-157.91 67.62-243.34 0-268.61-226.18-486.68-504.77-486.68-278.586 0-504.766 218.07-504.766 486.68 0 85.43 23.324 169.35 67.627 243.34H1703.1Z" style="fill:#008ee6" transform="rotate(-180 907.8 1289.367)"/><ellipse cx="969.243" cy="1552.3" rx="110.362" ry="112.171" style="fill:#005186" transform="matrix(1.27869 0 0 1.24194 -955.479 -984.228)"/><ellipse cx="969.243" cy="1552.3" rx="110.362" ry="112.171" style="fill:#005186" transform="matrix(1.27869 0 0 1.24194 -434.427 -986.676)"/><path d="m437.336 1031.25 110.361 350.99H326.974l110.362-350.99Z" style="fill:#005186" transform="translate(110.796 -142.107)"/><ellipse cx="591.118" cy="1251.97" rx="90.461" ry="94.079" style="fill:#fff" transform="translate(-309.685 -261.515)"/><ellipse cx="591.118" cy="1251.97" rx="90.461" ry="94.079" style="fill:#fff" transform="translate(210.197 -265.559)"/><ellipse cx="968.998" cy="1696.25" rx="52.679" ry="49.486" transform="translate(-686.321 -749.149)"/><ellipse cx="968.998" cy="1696.25" rx="52.679" ry="49.486" transform="translate(-164.852 -754.47)"/><path d="M592.928 2019.08c-28.958 0-52.467 35.67-52.467 79.6 0 43.94 23.509 79.61 52.467 79.61-8.688-18.57-15.741-47.85-15.741-79.61 0-31.75 7.053-61.03 15.741-79.6Z" style="fill:#005186" transform="rotate(-89.908 186.877 1736.909)"/><path style="fill:#005186" d="M511.513 828.618h289.474v39.803H511.513z" transform="matrix(.6959 -.44275 .44275 .6959 17.84 -27.846)"/><ellipse cx="1401.64" cy="1058.39" rx="47.039" ry="37.993" style="fill:#005186" transform="matrix(.5682 0 0 .72729 88.21 -444.669)"/><ellipse cx="1401.64" cy="1058.39" rx="47.039" ry="37.993" style="fill:#005186" transform="matrix(.5682 0 0 .72729 17.687 -555.155)"/><path style="fill:#005186" d="M894.679 1306.52H1016v20.22H894.679z" transform="matrix(1.05637 -1.01901 1.55629 1.61334 -2816.9 -554.45)"/><path d="m879.78 937.236 13.835 44.698h-27.67l13.835-44.698Z" style="fill:#005186" transform="rotate(141.386 910.537 604.081) scale(1.29901)"/><path d="m879.78 937.236 13.835 44.698h-27.67l13.835-44.698Z" style="fill:#005186" transform="matrix(1.0015 -.80302 .8126 1.01345 -1276.13 61.96)"/><path style="fill:#005186" d="M828.697 893.603h88.33v14.899h-88.33z" transform="rotate(-38.964 -608.593 1922.282) scale(1.29901)"/><path style="fill:#005186" d="M828.697 893.603h88.33v14.899h-88.33z" transform="matrix(1.11004 -.89772 .81685 1.01004 -1331.29 259.977)"/><path style="fill:#005186" d="M806.383 932.181h8.78v138.083h-8.78z" transform="matrix(.5906 -1.15699 .63344 .32334 -831.611 917.189)"/><path style="fill:#005186" d="M806.383 932.181h8.78v138.083h-8.78z" transform="matrix(-1.29846 .03786 -.02073 -.7109 1396.58 1050.26)"/><path style="fill:#005186" d="M710.526 966.118h18.092v112.171h-18.092z" transform="rotate(-59.308 104.788 1336.397) scale(1.53904)"/><path style="fill:#005186" d="M710.526 966.118h18.092v112.171h-18.092z" transform="matrix(1.40929 .6185 -.6185 1.40929 438.734 -1286.33)"/><path style="fill:#005186" d="M710.526 966.118h18.092v112.171h-18.092z" transform="matrix(-.00545 1.75255 -1.52047 -.00472 2127.62 -797.263)"/><path style="fill:#005186" d="M710.526 966.118h18.092v112.171h-18.092z" transform="matrix(2.10984 .01128 -.0084 1.57071 -944.481 -1146.1)"/><path style="fill:#005186" d="M1091.44 894.676h119.193v29.798H1091.44z" transform="rotate(-35.673 -839.932 2448.185) scale(1.46267)"/><path style="fill:#005186" d="M1091.44 894.676h119.193v29.798H1091.44z" transform="rotate(-35.673 -744.093 2416.587) scale(1.46267)"/><text x="704.859" y="2033.61" style="font-family:'ChalkboardSE-Bold','Chalkboard SE',cursive;font-weight:700;font-size:144px" transform="rotate(42.666 1227.244 792.436)">R</text><text x="777.357" y="2098.57" style="font-family:'ChalkboardSE-Bold','Chalkboard SE',cursive;font-weight:700;font-size:144px" transform="rotate(38.033 1416.103 737.565)">i</text><text x="811.217" y="2125.79" style="font-family:'ChalkboardSE-Bold','Chalkboard SE',cursive;font-weight:700;font-size:144px" transform="rotate(33.715 1586.041 624.653)">g</text><text x="883.766" y="2173.94" style="font-family:'ChalkboardSE-Bold','Chalkboard SE',cursive;font-weight:700;font-size:144px" transform="rotate(27.428 1930.824 392.467)">h</text><text x="954.158" y="2210.58" style="font-family:'ChalkboardSE-Bold','Chalkboard SE',cursive;font-weight:700;font-size:144px" transform="rotate(21.74 2379.91 39.114)">t</text><text x="1093.36" y="2260.13" style="font-family:'ChalkboardSE-Bold','Chalkboard SE',cursive;font-weight:700;font-size:144px" transform="rotate(7.862 5708.104 -3195.383)">M</text><text x="1219.01" y="2274.63" style="font-family:'ChalkboardSE-Bold','Chalkboard SE',cursive;font-weight:700;font-size:144px" transform="rotate(.913 43653.871 -42127.374)">i</text><text x="1262.61" y="2275.97" style="font-family:'ChalkboardSE-Bold','Chalkboard SE',cursive;font-weight:700;font-size:144px" transform="rotate(-4.318 -8140.884 11256.583)">n</text><text x="1349.97" y="2268.93" style="font-family:'ChalkboardSE-Bold','Chalkboard SE',cursive;font-weight:700;font-size:144px" transform="rotate(-11.311 -2447.788 5476.715)">d</text><text x="1510" y="2229.53" style="font-family:'ChalkboardSE-Bold','Chalkboard SE',cursive;font-weight:700;font-size:144px" transform="rotate(-23.501 -482.097 3577.816)">M</text><text x="1625.62" y="2177.82" style="font-family:'ChalkboardSE-Bold','Chalkboard SE',cursive;font-weight:700;font-size:144px" transform="rotate(-29.243 -34.001 3183.711)">a</text><text x="1691.16" y="2141.25" style="font-family:'ChalkboardSE-Bold','Chalkboard SE',cursive;font-weight:700;font-size:144px" transform="rotate(-32.606 172.87 3001.59)">t</text><text x="1753.03" y="2101.86" style="font-family:'ChalkboardSE-Bold','Chalkboard SE',cursive;font-weight:700;font-size:144px" transform="rotate(-35.825 345.756 2847.882)">h</text><g><path d="M1505.62 2033.13c-59.1-20.49-101.58-76.69-101.58-142.73 0-83.36 67.67-151.03 151.03-151.03 69.92 0 128.81 47.61 145.98 112.16-46.71 76.34-114.41 139.34-195.43 181.6Z" style="fill:#ff3554" transform="translate(-716.119 -631.02)"/></g><g><path d="M821.643 1835.76c22.223-55.74 76.719-95.18 140.353-95.18 83.354 0 151.034 67.67 151.034 151.03 0 62.28-37.78 115.81-91.67 138.9-84.308-45.16-153.824-112.92-199.717-194.75Z" style="fill:#ff3554" transform="translate(-716.119 -631.02)"/></g></svg>