<?xml version="1.0" encoding="UTF-8" standalone="no"?>
<!DOCTYPE svg PUBLIC "-//W3C//DTD SVG 1.1//EN" "http://www.w3.org/Graphics/SVG/1.1/DTD/svg11.dtd">
<svg width="100%" height="100%" viewBox="0 0 1000 1000" version="1.1" xmlns="http://www.w3.org/2000/svg" xmlns:xlink="http://www.w3.org/1999/xlink" xml:space="preserve" xmlns:serif="http://www.serif.com/" style="fill-rule:evenodd;clip-rule:evenodd;stroke-linejoin:round;stroke-miterlimit:2;">
    <rect id="bkgnd" x="0" y="0" width="1000" height="1000" style="fill:rgb(52,73,94);"/>
    <g id="Face">
        <g transform="matrix(-0.990554,-0.000574848,0.000584279,-0.974565,1753.06,2090.38)">
            <path d="M1703.1,1848.11C1747.4,1774.12 1770.72,1690.2 1770.72,1604.77C1770.72,1336.16 1544.54,1118.09 1265.95,1118.09C987.364,1118.09 761.184,1336.16 761.184,1604.77C761.184,1690.2 784.508,1774.12 828.811,1848.11L1703.1,1848.11Z" style="fill:rgb(0,142,230);"/>
        </g>
        <g transform="matrix(1.26661,0,0,1.21035,-991.095,-1382.48)">
            <ellipse cx="969.243" cy="1552.3" rx="110.362" ry="112.171" style="fill:rgb(0,81,134);"/>
        </g>
        <g transform="matrix(1.26661,0,0,1.21035,-474.965,-1384.87)">
            <ellipse cx="969.243" cy="1552.3" rx="110.362" ry="112.171" style="fill:rgb(0,81,134);"/>
        </g>
        <g transform="matrix(0.990554,0,0,0.974565,65.1076,-561.78)">
            <path d="M437.336,1031.25L547.697,1382.24L326.974,1382.24L437.336,1031.25Z" style="fill:rgb(0,81,134);"/>
        </g>
        <g transform="matrix(0.990554,0,0,0.974565,-351.401,-678.151)">
            <ellipse cx="591.118" cy="1251.97" rx="90.461" ry="94.079" style="fill:white;"/>
        </g>
        <g transform="matrix(0.990554,0,0,0.974565,163.57,-682.092)">
            <ellipse cx="591.118" cy="1251.97" rx="90.461" ry="94.079" style="fill:white;"/>
        </g>
        <g transform="matrix(0.990554,0,0,0.974565,-724.48,-1153.38)">
            <ellipse cx="968.998" cy="1696.25" rx="52.679" ry="49.486"/>
        </g>
        <g transform="matrix(0.990554,0,0,0.974565,-207.937,-1158.57)">
            <ellipse cx="968.998" cy="1696.25" rx="52.679" ry="49.486"/>
        </g>
        <g transform="matrix(0.0015884,-0.974564,0.990553,0.00156276,-1580.33,1448.85)">
            <path d="M592.928,2019.08C563.97,2019.08 540.461,2054.75 540.461,2098.68C540.461,2142.62 563.97,2178.29 592.928,2178.29C584.24,2159.72 577.187,2130.44 577.187,2098.68C577.187,2066.93 584.24,2037.65 592.928,2019.08Z" style="fill:rgb(0,81,134);"/>
        </g>
        <g transform="matrix(0.990554,0,0,0.974565,-753.996,-1038.26)">
            <path d="M1505.62,2033.13C1446.52,2012.64 1404.04,1956.44 1404.04,1890.4C1404.04,1807.04 1471.71,1739.37 1555.07,1739.37C1624.99,1739.37 1683.88,1786.98 1701.05,1851.53C1654.34,1927.87 1586.64,1990.87 1505.62,2033.13Z" style="fill:rgb(255,53,84);"/>
        </g>
        <g transform="matrix(0.990554,0,0,0.974565,-753.996,-1038.26)">
            <path d="M821.643,1835.76C843.866,1780.02 898.362,1740.58 961.996,1740.58C1045.35,1740.58 1113.03,1808.25 1113.03,1891.61C1113.03,1953.89 1075.25,2007.42 1021.36,2030.51C937.052,1985.35 867.536,1917.59 821.643,1835.76Z" style="fill:rgb(255,53,84);"/>
        </g>
    </g>
    <g id="sign_add" transform="matrix(1,0,0,1,-73.5781,-8.61377)">
        <g transform="matrix(-0.005446,1.75255,-1.52047,-0.00472481,1756.37,-1118.34)">
            <rect x="710.526" y="966.118" width="18.092" height="112.171" style="fill:rgb(179,229,255);"/>
        </g>
        <g transform="matrix(2.10984,0.0112839,-0.00840045,1.57071,-1311.73,-1467.18)">
            <rect x="710.526" y="966.118" width="18.092" height="112.171" style="fill:rgb(179,229,255);"/>
        </g>
    </g>
    <g id="sign_multiply" transform="matrix(1.0447,0.297901,-0.297901,1.0447,-69.1154,-725.081)">
        <g transform="matrix(0.78556,-1.32346,1.32346,0.78556,-1097.9,744.38)">
            <rect x="710.526" y="966.118" width="18.092" height="112.171" style="fill:rgb(179,229,255);"/>
        </g>
        <g transform="matrix(1.40929,0.618494,-0.618494,1.40929,438.734,-1286.33)">
            <rect x="710.526" y="966.118" width="18.092" height="112.171" style="fill:rgb(179,229,255);"/>
        </g>
    </g>
    <g id="sign_minus" transform="matrix(-0.005446,1.75255,-1.52047,-0.00472481,1940.76,-1126.95)">
        <rect x="710.526" y="966.118" width="18.092" height="112.171" style="fill:rgb(179,229,255);"/>
    </g>
    <g id="sign_equals" transform="matrix(0.821122,0.570753,-0.570753,0.821122,448.824,-260.918)">
        <g transform="matrix(1.18821,-0.85297,0.85297,1.18821,-1585.29,-30.4293)">
            <rect x="1091.44" y="894.676" width="119.193" height="29.798" style="fill:rgb(179,229,255);"/>
        </g>
        <g transform="matrix(1.18821,-0.85297,0.85297,1.18821,-1548.88,19.5308)">
            <rect x="1091.44" y="894.676" width="119.193" height="29.798" style="fill:rgb(179,229,255);"/>
        </g>
    </g>
</svg>
