<svg viewBox="0 0 1000 1000" xmlns="http://www.w3.org/2000/svg" xml:space="preserve" style="fill-rule:evenodd;clip-rule:evenodd;stroke-linejoin:round;stroke-miterlimit:2"><path style="fill:#34495e" d="M0 0h1000v1000H0z"/><path d="M1703.1 1848.11c44.3-73.99 67.62-157.91 67.62-243.34 0-268.61-226.18-486.68-504.77-486.68-278.586 0-504.766 218.07-504.766 486.68 0 85.43 23.324 169.35 67.627 243.34H1703.1Z" style="fill:#008ee6" transform="matrix(-.99055 -.00057 .00058 -.97457 1753.06 2090.38)"/><ellipse cx="969.243" cy="1552.3" rx="110.362" ry="112.171" style="fill:#005186" transform="matrix(1.26661 0 0 1.21035 -991.095 -1382.48)"/><ellipse cx="969.243" cy="1552.3" rx="110.362" ry="112.171" style="fill:#005186" transform="matrix(1.26661 0 0 1.21035 -474.965 -1384.87)"/><path d="m437.336 1031.25 110.361 350.99H326.974l110.362-350.99Z" style="fill:#005186" transform="matrix(.99055 0 0 .97457 65.108 -561.78)"/><ellipse cx="591.118" cy="1251.97" rx="90.461" ry="94.079" style="fill:#fff" transform="matrix(.99055 0 0 .97457 -351.401 -678.151)"/><ellipse cx="591.118" cy="1251.97" rx="90.461" ry="94.079" style="fill:#fff" transform="matrix(.99055 0 0 .97457 163.57 -682.092)"/><ellipse cx="968.998" cy="1696.25" rx="52.679" ry="49.486" transform="matrix(.99055 0 0 .97457 -724.48 -1153.38)"/><ellipse cx="968.998" cy="1696.25" rx="52.679" ry="49.486" transform="matrix(.99055 0 0 .97457 -207.937 -1158.57)"/><path d="M592.928 2019.08c-28.958 0-52.467 35.67-52.467 79.6 0 43.94 23.509 79.61 52.467 79.61-8.688-18.57-15.741-47.85-15.741-79.61 0-31.75 7.053-61.03 15.741-79.6Z" style="fill:#005186" transform="matrix(.00159 -.97456 .99055 .00156 -1580.33 1448.85)"/><path d="M1505.62 2033.13c-59.1-20.49-101.58-76.69-101.58-142.73 0-83.36 67.67-151.03 151.03-151.03 69.92 0 128.81 47.61 145.98 112.16-46.71 76.34-114.41 139.34-195.43 181.6ZM821.643 1835.76c22.223-55.74 76.719-95.18 140.353-95.18 83.354 0 151.034 67.67 151.034 151.03 0 62.28-37.78 115.81-91.67 138.9-84.308-45.16-153.824-112.92-199.717-194.75Z" style="fill:#ff3554" transform="matrix(.99055 0 0 .97457 -753.996 -1038.26)"/><g><path style="fill:#b3e5ff" d="M710.526 966.118h18.092v112.171h-18.092z" transform="matrix(-.00545 1.75255 -1.52047 -.00472 1682.792 -1126.954)"/><path style="fill:#b3e5ff" d="M710.526 966.118h18.092v112.171h-18.092z" transform="matrix(2.10984 .01128 -.0084 1.57071 -1385.308 -1475.794)"/></g><g><path style="fill:#b3e5ff" d="M710.526 966.118h18.092v112.171h-18.092z" transform="rotate(-43.392 -1063.875 1669.674) scale(1.67193)"/><path style="fill:#b3e5ff" d="M710.526 966.118h18.092v112.171h-18.092z" transform="scale(1.67192) rotate(39.611 1840.517 61.8)"/></g><g><path style="fill:#b3e5ff" d="M710.526 966.118h18.092v112.171h-18.092z" transform="matrix(-.00545 1.75255 -1.52047 -.00472 1940.76 -1126.95)"/></g><g><path style="fill:#b3e5ff" d="M1091.44 894.676h119.193v29.798H1091.44z" transform="rotate(-.872 -78802.68 54403.823) scale(1.46267)"/><path style="fill:#b3e5ff" d="M1091.44 894.676h119.193v29.798H1091.44z" transform="rotate(-.872 -74733.473 54343.864) scale(1.46267)"/></g></svg>